<?xml version="1.0" encoding="UTF-8" standalone="no"?>
<!DOCTYPE svg PUBLIC "-//W3C//DTD SVG 1.1//EN"
 "http://www.w3.org/Graphics/SVG/1.1/DTD/svg11.dtd">
<!-- Generated by graphviz version 2.40.1 (20161225.0304)
 -->
<!-- Title: Chess_Connect Pages: 1 -->
<svg width="1378pt" height="1791pt"
 viewBox="0.00 0.00 1378.30 1790.74" xmlns="http://www.w3.org/2000/svg" xmlns:xlink="http://www.w3.org/1999/xlink">
<g id="graph0" class="graph" transform="scale(1 1) rotate(0) translate(4 1786.7441)">
<title>Chess_Connect</title>
<polygon fill="#ffffff" stroke="transparent" points="-4,4 -4,-1786.7441 1374.3042,-1786.7441 1374.3042,4 -4,4"/>
<text text-anchor="middle" x="685.1521" y="-1756.2441" font-family="Times,serif" font-weight="bold" font-size="25.00" fill="#000000"> </text>
<!-- pwr_off -->
<g id="node1" class="node">
<title>pwr_off</title>
<ellipse fill="none" stroke="#000000" cx="583.4952" cy="-1715.3285" rx="51.5426" ry="18"/>
<text text-anchor="middle" x="583.4952" y="-1711.1285" font-family="Times,serif" font-size="14.00" fill="#000000">Power Off</text>
</g>
<!-- pre_init -->
<g id="node2" class="node">
<title>pre_init</title>
<ellipse fill="none" stroke="#00ff00" cx="819.4952" cy="-1715.3285" rx="90.3487" ry="18"/>
<text text-anchor="middle" x="819.4952" y="-1711.1285" font-family="Times,serif" font-size="14.00" fill="#00ff00">WAIT FOR START</text>
</g>
<!-- pwr_off&#45;&gt;pre_init -->
<g id="edge1" class="edge">
<title>pwr_off&#45;&gt;pre_init</title>
<path fill="none" stroke="#000000" d="M635.2864,-1715.3285C659.8039,-1715.3285 689.9597,-1715.3285 718.7203,-1715.3285"/>
<polygon fill="#000000" stroke="#000000" points="718.8236,-1718.8286 728.8236,-1715.3285 718.8235,-1711.8286 718.8236,-1718.8286"/>
<text text-anchor="middle" x="682.0437" y="-1739.3285" font-family="Times,serif" font-size="14.00" fill="#000000">Power Button</text>
<text text-anchor="middle" x="682.0437" y="-1722.5285" font-family="Times,serif" font-size="14.00" fill="#000000">Pressed</text>
</g>
<!-- init -->
<g id="node3" class="node">
<title>init</title>
<ellipse fill="none" stroke="#000000" cx="1115.4952" cy="-1715.3285" rx="58.1415" ry="29.3315"/>
<text text-anchor="middle" x="1115.4952" y="-1719.5285" font-family="Times,serif" font-size="14.00" fill="#000000">Read Board</text>
<text text-anchor="middle" x="1115.4952" y="-1702.7285" font-family="Times,serif" font-size="14.00" fill="#000000">State</text>
</g>
<!-- pre_init&#45;&gt;init -->
<g id="edge2" class="edge">
<title>pre_init&#45;&gt;init</title>
<path fill="none" stroke="#000000" d="M910.3165,-1715.3285C954.3396,-1715.3285 1006.3386,-1715.3285 1046.9733,-1715.3285"/>
<polygon fill="#000000" stroke="#000000" points="1047.0476,-1718.8286 1057.0475,-1715.3285 1047.0475,-1711.8286 1047.0476,-1718.8286"/>
<text text-anchor="middle" x="983.5471" y="-1756.1285" font-family="Times,serif" font-size="14.00" fill="#000000">Inputs:</text>
<text text-anchor="middle" x="983.5471" y="-1739.3285" font-family="Times,serif" font-size="14.00" fill="#000000">&#45;Game Mode Selection</text>
<text text-anchor="middle" x="983.5471" y="-1722.5285" font-family="Times,serif" font-size="14.00" fill="#000000">&#45;Start Game</text>
</g>
<!-- is_init -->
<g id="node25" class="node">
<title>is_init</title>
<polygon fill="none" stroke="#000000" points="831.4952,-1649.0131 768.4095,-1607.3128 831.4952,-1565.6126 894.5808,-1607.3128 831.4952,-1649.0131"/>
<text text-anchor="middle" x="831.4952" y="-1611.5128" font-family="Times,serif" font-size="14.00" fill="#000000">Is Initial</text>
<text text-anchor="middle" x="831.4952" y="-1594.7128" font-family="Times,serif" font-size="14.00" fill="#000000">State?</text>
</g>
<!-- init&#45;&gt;is_init -->
<g id="edge3" class="edge">
<title>init&#45;&gt;is_init</title>
<path fill="none" stroke="#000000" d="M1068.9164,-1697.6129C1017.2145,-1677.9487 934.1016,-1646.3379 881.1805,-1626.21"/>
<polygon fill="#000000" stroke="#000000" points="882.2557,-1622.8744 871.6647,-1622.5908 879.7672,-1629.4171 882.2557,-1622.8744"/>
</g>
<!-- send_config -->
<g id="node4" class="node">
<title>send_config</title>
<ellipse fill="none" stroke="#000000" cx="679.4952" cy="-1017.6346" rx="113.0739" ry="29.3315"/>
<text text-anchor="middle" x="679.4952" y="-1021.8346" font-family="Times,serif" font-size="14.00" fill="#000000">Send Piece Configuration</text>
<text text-anchor="middle" x="679.4952" y="-1005.0346" font-family="Times,serif" font-size="14.00" fill="#000000">to Web&#45;App</text>
</g>
<!-- calc -->
<g id="node5" class="node">
<title>calc</title>
<ellipse fill="none" stroke="#000000" cx="679.4952" cy="-906.0033" rx="84.4063" ry="29.3315"/>
<text text-anchor="middle" x="679.4952" y="-910.2033" font-family="Times,serif" font-size="14.00" fill="#000000">Run Chess Engine</text>
<text text-anchor="middle" x="679.4952" y="-893.4033" font-family="Times,serif" font-size="14.00" fill="#000000">Calculations</text>
</g>
<!-- send_config&#45;&gt;calc -->
<g id="edge6" class="edge">
<title>send_config&#45;&gt;calc</title>
<path fill="none" stroke="#000000" d="M679.4952,-988.0126C679.4952,-975.1446 679.4952,-959.8744 679.4952,-946.0196"/>
<polygon fill="#000000" stroke="#000000" points="682.9953,-945.7638 679.4952,-935.7638 675.9953,-945.7639 682.9953,-945.7638"/>
</g>
<!-- disp_moves_in_web -->
<g id="node6" class="node">
<title>disp_moves_in_web</title>
<ellipse fill="none" stroke="#000000" cx="771.4952" cy="-708.9721" rx="71.5488" ry="29.3315"/>
<text text-anchor="middle" x="771.4952" y="-713.1721" font-family="Times,serif" font-size="14.00" fill="#000000">Display Moves</text>
<text text-anchor="middle" x="771.4952" y="-696.3721" font-family="Times,serif" font-size="14.00" fill="#000000">on Web&#45;App</text>
</g>
<!-- calc&#45;&gt;disp_moves_in_web -->
<g id="edge7" class="edge">
<title>calc&#45;&gt;disp_moves_in_web</title>
<path fill="none" stroke="#000000" d="M703.0044,-877.4784C711.5321,-866.1707 720.7237,-852.7429 727.4952,-839.5877 742.5953,-810.2523 754.1937,-774.6257 761.682,-747.9952"/>
<polygon fill="#000000" stroke="#000000" points="765.082,-748.8307 764.3494,-738.2612 758.3309,-746.9806 765.082,-748.8307"/>
</g>
<!-- engine -->
<g id="node24" class="node">
<title>engine</title>
<polygon fill="none" stroke="#000000" points="662.4952,-839.6879 606.6791,-797.9877 662.4952,-756.2875 718.3112,-797.9877 662.4952,-839.6879"/>
<text text-anchor="middle" x="662.4952" y="-802.1877" font-family="Times,serif" font-size="14.00" fill="#000000">Engine</text>
<text text-anchor="middle" x="662.4952" y="-785.3877" font-family="Times,serif" font-size="14.00" fill="#000000">Mode</text>
</g>
<!-- calc&#45;&gt;engine -->
<g id="edge9" class="edge">
<title>calc&#45;&gt;engine</title>
<path fill="none" stroke="#000000" d="M674.8498,-876.4876C673.345,-866.9258 671.6356,-856.0645 669.9785,-845.5355"/>
<polygon fill="#000000" stroke="#000000" points="673.4263,-844.93 668.4141,-835.5958 666.5115,-846.0183 673.4263,-844.93"/>
</g>
<!-- wait_input -->
<g id="node8" class="node">
<title>wait_input</title>
<ellipse fill="none" stroke="#0000ff" cx="543.4952" cy="-536.3095" rx="53.2418" ry="29.3315"/>
<text text-anchor="middle" x="543.4952" y="-540.5095" font-family="Times,serif" font-size="14.00" fill="#0000ff">Wait for</text>
<text text-anchor="middle" x="543.4952" y="-523.7095" font-family="Times,serif" font-size="14.00" fill="#0000ff">User Input</text>
</g>
<!-- disp_moves_in_web&#45;&gt;wait_input -->
<g id="edge8" class="edge">
<title>disp_moves_in_web&#45;&gt;wait_input</title>
<path fill="none" stroke="#000000" d="M775.9268,-679.4631C777.7269,-656.0373 776.1388,-623.8231 758.4952,-602.7251 738.5765,-578.9067 660.5017,-559.0609 604.1712,-547.4374"/>
<polygon fill="#000000" stroke="#000000" points="604.7729,-543.9882 594.2771,-545.4335 603.3834,-550.849 604.7729,-543.9882"/>
</g>
<!-- disp_moves_on_board -->
<g id="node7" class="node">
<title>disp_moves_on_board</title>
<ellipse fill="none" stroke="#000000" cx="662.4952" cy="-632.1408" rx="87.4411" ry="29.3315"/>
<text text-anchor="middle" x="662.4952" y="-636.3408" font-family="Times,serif" font-size="14.00" fill="#000000">Send Moves to</text>
<text text-anchor="middle" x="662.4952" y="-619.5408" font-family="Times,serif" font-size="14.00" fill="#000000">Board, Light LEDs</text>
</g>
<!-- disp_moves_on_board&#45;&gt;wait_input -->
<g id="edge12" class="edge">
<title>disp_moves_on_board&#45;&gt;wait_input</title>
<path fill="none" stroke="#000000" d="M628.7129,-604.9357C614.1025,-593.1699 596.9304,-579.3411 581.8439,-567.1919"/>
<polygon fill="#000000" stroke="#000000" points="583.6904,-564.1851 573.7066,-560.6389 579.2999,-569.637 583.6904,-564.1851"/>
</g>
<!-- wait_input&#45;&gt;pre_init -->
<g id="edge37" class="edge">
<title>wait_input&#45;&gt;pre_init</title>
<path fill="none" stroke="#000000" d="M515.7593,-561.5817C499.2515,-579.4567 481.4952,-604.9932 481.4952,-632.1408 481.4952,-1607.3128 481.4952,-1607.3128 481.4952,-1607.3128 481.4952,-1635.0449 648.7196,-1677.2049 747.923,-1699.7757"/>
<polygon fill="#000000" stroke="#000000" points="747.368,-1703.2385 757.8938,-1702.0305 748.9121,-1696.4109 747.368,-1703.2385"/>
<text text-anchor="middle" x="517.8546" y="-1133.4659" font-family="Times,serif" font-size="14.00" fill="#000000">Reset Button</text>
<text text-anchor="middle" x="517.8546" y="-1116.6659" font-family="Times,serif" font-size="14.00" fill="#000000">Pressed</text>
</g>
<!-- wait_placement -->
<g id="node9" class="node">
<title>wait_placement</title>
<ellipse fill="none" stroke="#000000" cx="658.4952" cy="-407.8782" rx="70.3275" ry="29.3315"/>
<text text-anchor="middle" x="658.4952" y="-412.0782" font-family="Times,serif" font-size="14.00" fill="#000000">Wait for New</text>
<text text-anchor="middle" x="658.4952" y="-395.2782" font-family="Times,serif" font-size="14.00" fill="#000000">Piece Location</text>
</g>
<!-- wait_input&#45;&gt;wait_placement -->
<g id="edge13" class="edge">
<title>wait_input&#45;&gt;wait_placement</title>
<path fill="none" stroke="#000000" d="M567.3232,-509.6984C584.5498,-490.4599 608.002,-464.2686 626.8066,-443.2678"/>
<polygon fill="#000000" stroke="#000000" points="629.4409,-445.5726 633.5042,-435.7879 624.226,-440.9031 629.4409,-445.5726"/>
<text text-anchor="middle" x="645.6246" y="-476.2939" font-family="Times,serif" font-size="14.00" fill="#000000">User Picks</text>
<text text-anchor="middle" x="645.6246" y="-459.4939" font-family="Times,serif" font-size="14.00" fill="#000000">Up Piece</text>
</g>
<!-- end -->
<g id="node15" class="node">
<title>end</title>
<ellipse fill="none" stroke="#ff0000" cx="918.4952" cy="-277.0469" rx="61.9389" ry="18"/>
<text text-anchor="middle" x="918.4952" y="-272.8469" font-family="Times,serif" font-size="14.00" fill="#ff0000">END GAME</text>
</g>
<!-- wait_input&#45;&gt;end -->
<g id="edge32" class="edge">
<title>wait_input&#45;&gt;end</title>
<path fill="none" stroke="#000000" d="M592.3949,-524.3015C619.2261,-516.4984 652.4394,-504.7924 679.4952,-488.8939 709.2421,-471.4139 715.4452,-463.8312 737.4952,-437.2939 757.0113,-413.806 752.1198,-400.755 772.991,-378.4626 804.212,-345.1156 848.1125,-316.3597 879.5115,-298.0727"/>
<polygon fill="#000000" stroke="#000000" points="881.4832,-300.9769 888.4203,-292.969 878.0035,-294.9031 881.4832,-300.9769"/>
<text text-anchor="middle" x="813.7473" y="-412.0782" font-family="Times,serif" font-size="14.00" fill="#000000">Resign Button</text>
<text text-anchor="middle" x="813.7473" y="-395.2782" font-family="Times,serif" font-size="14.00" fill="#000000">Pressed</text>
</g>
<!-- blue_disc -->
<g id="node19" class="node">
<title>blue_disc</title>
<ellipse fill="none" stroke="#000000" cx="68.4952" cy="-407.8782" rx="68.4903" ry="29.3315"/>
<text text-anchor="middle" x="68.4952" y="-412.0782" font-family="Times,serif" font-size="14.00" fill="#000000">Bluetooth</text>
<text text-anchor="middle" x="68.4952" y="-395.2782" font-family="Times,serif" font-size="14.00" fill="#000000">Disconnection</text>
</g>
<!-- wait_input&#45;&gt;blue_disc -->
<g id="edge38" class="edge">
<title>wait_input&#45;&gt;blue_disc</title>
<path fill="none" stroke="#000000" d="M491.6327,-528.2942C441.9257,-520.1282 364.9933,-506.22 299.4952,-488.8939 230.1184,-470.5417 214.0792,-461.4256 146.4952,-437.2939 140.9943,-435.3297 135.2892,-433.2537 129.581,-431.15"/>
<polygon fill="#000000" stroke="#000000" points="130.6001,-427.7951 120.0071,-427.5983 128.1654,-434.358 130.6001,-427.7951"/>
</g>
<!-- wifi_disc -->
<g id="node20" class="node">
<title>wifi_disc</title>
<ellipse fill="none" stroke="#000000" cx="245.4952" cy="-407.8782" rx="90.4239" ry="29.3315"/>
<text text-anchor="middle" x="245.4952" y="-412.0782" font-family="Times,serif" font-size="14.00" fill="#000000">Internet Connection</text>
<text text-anchor="middle" x="245.4952" y="-395.2782" font-family="Times,serif" font-size="14.00" fill="#000000">Lost</text>
</g>
<!-- wait_input&#45;&gt;wifi_disc -->
<g id="edge40" class="edge">
<title>wait_input&#45;&gt;wifi_disc</title>
<path fill="none" stroke="#000000" d="M491.9941,-528.5618C453.6318,-521.5285 400.6523,-509.1017 357.4952,-488.8939 331.4011,-476.6756 305.148,-458.0981 284.6245,-441.8137"/>
<polygon fill="#000000" stroke="#000000" points="286.7473,-439.0292 276.7681,-435.4702 282.3498,-444.4755 286.7473,-439.0292"/>
</g>
<!-- cheat -->
<g id="node23" class="node">
<title>cheat</title>
<ellipse fill="none" stroke="#000000" cx="610.4952" cy="-342.4626" rx="84.471" ry="18"/>
<text text-anchor="middle" x="610.4952" y="-338.2626" font-family="Times,serif" font-size="14.00" fill="#000000">Cheating Occurred</text>
</g>
<!-- wait_input&#45;&gt;cheat -->
<g id="edge46" class="edge">
<title>wait_input&#45;&gt;cheat</title>
<path fill="none" stroke="#000000" d="M545.9505,-506.6455C549.6252,-473.793 558.5285,-419.9877 579.4952,-378.4626 581.2842,-374.9193 583.4961,-371.436 585.9087,-368.1153"/>
<polygon fill="#000000" stroke="#000000" points="588.6824,-370.2509 592.1927,-360.2545 583.2147,-365.8801 588.6824,-370.2509"/>
</g>
<!-- draw -->
<g id="node29" class="node">
<title>draw</title>
<polygon fill="none" stroke="#000000" points="908.4952,-425.8782 862.6257,-407.8782 908.4952,-389.8782 954.3646,-407.8782 908.4952,-425.8782"/>
<text text-anchor="middle" x="908.4952" y="-403.6782" font-family="Times,serif" font-size="14.00" fill="#000000">Draw</text>
</g>
<!-- wait_input&#45;&gt;draw -->
<g id="edge31" class="edge">
<title>wait_input&#45;&gt;draw</title>
<path fill="none" stroke="#000000" d="M595.8819,-530.1962C654.95,-522.5156 746.54,-507.993 775.4952,-488.8939 790.6636,-478.8886 784.3548,-466.332 798.789,-455.2939 817.785,-440.7672 827.4859,-446.6461 849.4952,-437.2939 859.6078,-432.9968 870.4328,-427.7859 880.0139,-422.9509"/>
<polygon fill="#000000" stroke="#000000" points="881.8057,-425.9655 889.1078,-418.2889 878.6123,-419.7363 881.8057,-425.9655"/>
<text text-anchor="middle" x="835.8483" y="-476.2939" font-family="Times,serif" font-size="14.00" fill="#000000">Draw Button</text>
<text text-anchor="middle" x="835.8483" y="-459.4939" font-family="Times,serif" font-size="14.00" fill="#000000">Pressed</text>
</g>
<!-- is_valid -->
<g id="node27" class="node">
<title>is_valid</title>
<polygon fill="none" stroke="#000000" points="717.4952,-295.0469 652.4294,-277.0469 717.4952,-259.0469 782.5609,-277.0469 717.4952,-295.0469"/>
<text text-anchor="middle" x="717.4952" y="-272.8469" font-family="Times,serif" font-size="14.00" fill="#000000">Is Valid?</text>
</g>
<!-- wait_placement&#45;&gt;is_valid -->
<g id="edge14" class="edge">
<title>wait_placement&#45;&gt;is_valid</title>
<path fill="none" stroke="#000000" d="M682.995,-380.2995C687.6461,-374.0817 692.1095,-367.2918 695.4952,-360.4626 704.2265,-342.8507 709.7876,-321.3715 713.1342,-304.6199"/>
<polygon fill="#000000" stroke="#000000" points="716.6504,-304.8519 715.0246,-294.3826 709.7668,-303.5808 716.6504,-304.8519"/>
<text text-anchor="middle" x="744.0622" y="-346.6626" font-family="Times,serif" font-size="14.00" fill="#000000">Piece Placed</text>
<text text-anchor="middle" x="744.0622" y="-329.8626" font-family="Times,serif" font-size="14.00" fill="#000000">Down</text>
</g>
<!-- red -->
<g id="node10" class="node">
<title>red</title>
<ellipse fill="none" stroke="#000000" cx="610.4952" cy="-153.2313" rx="47.5537" ry="18"/>
<text text-anchor="middle" x="610.4952" y="-149.0313" font-family="Times,serif" font-size="14.00" fill="#000000">Red LED</text>
</g>
<!-- red&#45;&gt;wait_input -->
<g id="edge19" class="edge">
<title>red&#45;&gt;wait_input</title>
<path fill="none" stroke="#000000" d="M598.3876,-170.6753C578.4896,-200.5242 539.6674,-264.0392 525.4952,-324.4626 511.6055,-383.6816 523.056,-454.4419 532.9788,-497.3471"/>
<polygon fill="#000000" stroke="#000000" points="529.5844,-498.2019 535.3219,-507.1087 536.3911,-496.5679 529.5844,-498.2019"/>
</g>
<!-- yellow -->
<g id="node11" class="node">
<title>yellow</title>
<ellipse fill="none" stroke="#000000" cx="712.4952" cy="-1213.6816" rx="60.7927" ry="18"/>
<text text-anchor="middle" x="712.4952" y="-1209.4816" font-family="Times,serif" font-size="14.00" fill="#000000">Yellow LED</text>
</g>
<!-- warning -->
<g id="node14" class="node">
<title>warning</title>
<ellipse fill="none" stroke="#000000" cx="703.4952" cy="-1129.2659" rx="89.8671" ry="29.3315"/>
<text text-anchor="middle" x="703.4952" y="-1133.4659" font-family="Times,serif" font-size="14.00" fill="#000000">Save Warning State</text>
<text text-anchor="middle" x="703.4952" y="-1116.6659" font-family="Times,serif" font-size="14.00" fill="#000000">to Hardware</text>
</g>
<!-- yellow&#45;&gt;warning -->
<g id="edge23" class="edge">
<title>yellow&#45;&gt;warning</title>
<path fill="none" stroke="#000000" d="M710.5423,-1195.3646C709.7159,-1187.6137 708.7187,-1178.26 707.7378,-1169.0597"/>
<polygon fill="#000000" stroke="#000000" points="711.1878,-1168.4037 706.6473,-1158.8312 704.2272,-1169.1459 711.1878,-1168.4037"/>
</g>
<!-- green -->
<g id="node12" class="node">
<title>green</title>
<ellipse fill="none" stroke="#000000" cx="1314.4952" cy="-29.4156" rx="55.6187" ry="18"/>
<text text-anchor="middle" x="1314.4952" y="-25.2156" font-family="Times,serif" font-size="14.00" fill="#000000">Green LED</text>
</g>
<!-- green&#45;&gt;init -->
<g id="edge20" class="edge">
<title>green&#45;&gt;init</title>
<path fill="none" stroke="#000000" d="M1323.4518,-47.3724C1334.4021,-71.0235 1351.4952,-114.1943 1351.4952,-153.2313 1351.4952,-1607.3128 1351.4952,-1607.3128 1351.4952,-1607.3128 1351.4952,-1632.3543 1332.1414,-1632.1979 1313.4952,-1648.9128 1277.1288,-1681.5125 1224.2141,-1698.1938 1182.2342,-1706.6828"/>
<polygon fill="#000000" stroke="#000000" points="1181.5274,-1703.2545 1172.3627,-1708.5705 1182.8422,-1710.1299 1181.5274,-1703.2545"/>
</g>
<!-- check -->
<g id="node13" class="node">
<title>check</title>
<ellipse fill="none" stroke="#000000" cx="831.4952" cy="-1483.4972" rx="83.772" ry="29.3315"/>
<text text-anchor="middle" x="831.4952" y="-1487.6972" font-family="Times,serif" font-size="14.00" fill="#000000">Check for</text>
<text text-anchor="middle" x="831.4952" y="-1470.8972" font-family="Times,serif" font-size="14.00" fill="#000000">Check/Checkmate</text>
</g>
<!-- check&#45;&gt;warning -->
<g id="edge25" class="edge">
<title>check&#45;&gt;warning</title>
<path fill="none" stroke="#000000" d="M755.347,-1470.9893C714.4861,-1459.98 667.5068,-1439.4373 642.4952,-1401.2816 592.3995,-1324.8596 609.3272,-1280.8272 642.4952,-1195.6816 646.9792,-1184.1706 654.4943,-1173.4459 662.7459,-1164.1163"/>
<polygon fill="#000000" stroke="#000000" points="665.4953,-1166.3018 669.8001,-1156.6209 660.3978,-1161.5043 665.4953,-1166.3018"/>
<text text-anchor="middle" x="635.0066" y="-1160.8209" font-family="Times,serif" font-size="14.00" fill="#000000">No Warning</text>
</g>
<!-- check&#45;&gt;end -->
<g id="edge26" class="edge">
<title>check&#45;&gt;end</title>
<path fill="none" stroke="#000000" d="M863.1564,-1456.2207C889.7687,-1430.1104 923.4952,-1388.1001 923.4952,-1342.8816 923.4952,-1342.8816 923.4952,-1342.8816 923.4952,-1073.4503 923.4952,-790.1557 954.6019,-720.4488 963.4952,-437.2939 964.316,-411.1595 967.6835,-404.2722 963.4952,-378.4626 959.4428,-353.491 955.8037,-347.5652 945.4952,-324.4626 942.4867,-317.7203 938.8076,-310.6886 935.1449,-304.1686"/>
<polygon fill="#000000" stroke="#000000" points="937.9156,-301.9695 929.8706,-295.0754 931.8605,-305.4817 937.9156,-301.9695"/>
<text text-anchor="middle" x="961.9833" y="-901.8033" font-family="Times,serif" font-size="14.00" fill="#000000">Checkmate</text>
</g>
<!-- beginner -->
<g id="node28" class="node">
<title>beginner</title>
<polygon fill="none" stroke="#000000" points="754.4952,-1401.1817 651.0428,-1342.8816 754.4952,-1284.5814 857.9476,-1342.8816 754.4952,-1401.1817"/>
<text text-anchor="middle" x="754.4952" y="-1355.4816" font-family="Times,serif" font-size="14.00" fill="#000000">Beginner Mode</text>
<text text-anchor="middle" x="754.4952" y="-1338.6816" font-family="Times,serif" font-size="14.00" fill="#000000">OR</text>
<text text-anchor="middle" x="754.4952" y="-1321.8816" font-family="Times,serif" font-size="14.00" fill="#000000">Engine Mode</text>
</g>
<!-- check&#45;&gt;beginner -->
<g id="edge21" class="edge">
<title>check&#45;&gt;beginner</title>
<path fill="none" stroke="#000000" d="M815.5407,-1454.3615C806.3727,-1437.6192 794.5712,-1416.0675 783.7921,-1396.3829"/>
<polygon fill="#000000" stroke="#000000" points="786.7975,-1394.584 778.9246,-1387.494 780.6577,-1397.9461 786.7975,-1394.584"/>
<text text-anchor="middle" x="822.3781" y="-1423.4816" font-family="Times,serif" font-size="14.00" fill="#000000">Check</text>
</g>
<!-- check&#45;&gt;draw -->
<g id="edge27" class="edge">
<title>check&#45;&gt;draw</title>
<path fill="none" stroke="#000000" d="M849.7771,-1454.5657C865.4429,-1426.9686 885.4952,-1383.6766 885.4952,-1342.8816 885.4952,-1342.8816 885.4952,-1342.8816 885.4952,-536.3095 885.4952,-500.4736 894.2789,-459.8815 900.99,-434.0975"/>
<polygon fill="#000000" stroke="#000000" points="904.3983,-434.9006 903.6175,-424.3346 897.6388,-433.0813 904.3983,-434.9006"/>
</g>
<!-- warning&#45;&gt;send_config -->
<g id="edge28" class="edge">
<title>warning&#45;&gt;send_config</title>
<path fill="none" stroke="#000000" d="M697.1266,-1099.6439C694.3106,-1086.5457 690.9595,-1070.9587 687.9389,-1056.9089"/>
<polygon fill="#000000" stroke="#000000" points="691.334,-1056.0487 685.8102,-1047.0078 684.4904,-1057.5201 691.334,-1056.0487"/>
</g>
<!-- end&#45;&gt;pre_init -->
<g id="edge36" class="edge">
<title>end&#45;&gt;pre_init</title>
<path fill="none" stroke="#000000" d="M944.203,-293.5573C975.0004,-315.5803 1022.4952,-357.6808 1022.4952,-407.8782 1022.4952,-858.0877 1022.4952,-858.0877 1022.4952,-858.0877 1022.4952,-956.6603 969.4952,-974.8777 969.4952,-1073.4503 969.4952,-1607.3128 969.4952,-1607.3128 969.4952,-1607.3128 969.4952,-1652.8639 923.3802,-1681.1095 882.2887,-1697.2363"/>
<polygon fill="#000000" stroke="#000000" points="880.9407,-1694.0036 872.8019,-1700.7867 883.3943,-1700.5595 880.9407,-1694.0036"/>
<text text-anchor="middle" x="1022.8546" y="-1021.8346" font-family="Times,serif" font-size="14.00" fill="#000000">Reset Button</text>
<text text-anchor="middle" x="1022.8546" y="-1005.0346" font-family="Times,serif" font-size="14.00" fill="#000000">Pressed</text>
</g>
<!-- disp_stats_board -->
<g id="node16" class="node">
<title>disp_stats_board</title>
<ellipse fill="none" stroke="#000000" cx="779.4952" cy="-153.2313" rx="69.708" ry="29.3315"/>
<text text-anchor="middle" x="779.4952" y="-157.4313" font-family="Times,serif" font-size="14.00" fill="#000000">Display Game</text>
<text text-anchor="middle" x="779.4952" y="-140.6313" font-family="Times,serif" font-size="14.00" fill="#000000">Stats on Board</text>
</g>
<!-- end&#45;&gt;disp_stats_board -->
<g id="edge33" class="edge">
<title>end&#45;&gt;disp_stats_board</title>
<path fill="none" stroke="#000000" d="M899.1678,-259.8309C877.9847,-240.9619 843.4865,-210.2322 816.9591,-186.6027"/>
<polygon fill="#000000" stroke="#000000" points="819.152,-183.8688 809.3568,-179.8309 814.496,-189.0958 819.152,-183.8688"/>
</g>
<!-- disp_stats_web -->
<g id="node17" class="node">
<title>disp_stats_web</title>
<ellipse fill="none" stroke="#000000" cx="935.4952" cy="-153.2313" rx="68.4347" ry="29.3315"/>
<text text-anchor="middle" x="935.4952" y="-157.4313" font-family="Times,serif" font-size="14.00" fill="#000000">Display Game</text>
<text text-anchor="middle" x="935.4952" y="-140.6313" font-family="Times,serif" font-size="14.00" fill="#000000">Stats Online</text>
</g>
<!-- end&#45;&gt;disp_stats_web -->
<g id="edge34" class="edge">
<title>end&#45;&gt;disp_stats_web</title>
<path fill="none" stroke="#000000" d="M920.9671,-259.0431C923.3362,-241.7887 926.9923,-215.16 930.044,-192.9334"/>
<polygon fill="#000000" stroke="#000000" points="933.5481,-193.1423 931.441,-182.7592 926.6132,-192.1901 933.5481,-193.1423"/>
</g>
<!-- save_to_web -->
<g id="node18" class="node">
<title>save_to_web</title>
<ellipse fill="none" stroke="#000000" cx="935.4952" cy="-29.4156" rx="88.6697" ry="29.3315"/>
<text text-anchor="middle" x="935.4952" y="-33.6156" font-family="Times,serif" font-size="14.00" fill="#000000">Save Game History</text>
<text text-anchor="middle" x="935.4952" y="-16.8156" font-family="Times,serif" font-size="14.00" fill="#000000">to online Database</text>
</g>
<!-- disp_stats_web&#45;&gt;save_to_web -->
<g id="edge35" class="edge">
<title>disp_stats_web&#45;&gt;save_to_web</title>
<path fill="none" stroke="#000000" d="M935.4952,-123.5744C935.4952,-107.3074 935.4952,-86.9187 935.4952,-69.2773"/>
<polygon fill="#000000" stroke="#000000" points="938.9953,-69.2597 935.4952,-59.2597 931.9953,-69.2597 938.9953,-69.2597"/>
</g>
<!-- timer -->
<g id="node21" class="node">
<title>timer</title>
<ellipse fill="none" stroke="#000000" cx="307.4952" cy="-277.0469" rx="100.8274" ry="29.3315"/>
<text text-anchor="middle" x="307.4952" y="-281.2469" font-family="Times,serif" font-size="14.00" fill="#000000">Attempt Reconnection</text>
<text text-anchor="middle" x="307.4952" y="-264.4469" font-family="Times,serif" font-size="14.00" fill="#000000">for 30 Sec</text>
</g>
<!-- blue_disc&#45;&gt;timer -->
<g id="edge39" class="edge">
<title>blue_disc&#45;&gt;timer</title>
<path fill="none" stroke="#000000" d="M79.7117,-378.694C88.1499,-360.503 101.4547,-338.0488 119.9818,-324.4626 135.2068,-313.2978 173.2373,-302.7926 211.1003,-294.5218"/>
<polygon fill="#000000" stroke="#000000" points="212.1816,-297.8699 221.2304,-292.3592 210.72,-291.0242 212.1816,-297.8699"/>
<text text-anchor="middle" x="177.2519" y="-338.2626" font-family="Times,serif" font-size="14.00" fill="#000000">Queue Moves Made</text>
</g>
<!-- wifi_disc&#45;&gt;timer -->
<g id="edge41" class="edge">
<title>wifi_disc&#45;&gt;timer</title>
<path fill="none" stroke="#000000" d="M238.4491,-378.208C236.0451,-361.5643 235.7371,-340.9065 243.9818,-324.4626 246.5259,-319.3884 249.8991,-314.7184 253.7683,-310.4541"/>
<polygon fill="#000000" stroke="#000000" points="256.4765,-312.7021 261.1964,-303.2166 251.5915,-307.6884 256.4765,-312.7021"/>
<text text-anchor="middle" x="301.2519" y="-338.2626" font-family="Times,serif" font-size="14.00" fill="#000000">Queue Moves Made</text>
</g>
<!-- timer&#45;&gt;wait_input -->
<g id="edge45" class="edge">
<title>timer&#45;&gt;wait_input</title>
<path fill="none" stroke="#000000" d="M342.1712,-304.8247C347.9626,-310.7874 353.4068,-317.4296 357.4952,-324.4626 383.4489,-369.1093 354.9755,-395.4576 385.2518,-437.2939 411.4134,-473.4444 455.2127,-499.352 490.1072,-515.577"/>
<polygon fill="#000000" stroke="#000000" points="488.6752,-518.7706 499.2297,-519.6951 491.5554,-512.3905 488.6752,-518.7706"/>
<text text-anchor="middle" x="447.1169" y="-420.4782" font-family="Times,serif" font-size="14.00" fill="#000000">Connection Lost</text>
<text text-anchor="middle" x="447.1169" y="-403.6782" font-family="Times,serif" font-size="14.00" fill="#000000">Playing Without</text>
<text text-anchor="middle" x="447.1169" y="-386.8782" font-family="Times,serif" font-size="14.00" fill="#000000">Web&#45;App Connection</text>
</g>
<!-- connect -->
<g id="node30" class="node">
<title>connect</title>
<polygon fill="none" stroke="#000000" points="444.4952,-194.9315 363.9011,-153.2313 444.4952,-111.531 525.0892,-153.2313 444.4952,-194.9315"/>
<text text-anchor="middle" x="444.4952" y="-157.4313" font-family="Times,serif" font-size="14.00" fill="#000000">Connection</text>
<text text-anchor="middle" x="444.4952" y="-140.6313" font-family="Times,serif" font-size="14.00" fill="#000000">Successful</text>
</g>
<!-- timer&#45;&gt;connect -->
<g id="edge42" class="edge">
<title>timer&#45;&gt;connect</title>
<path fill="none" stroke="#000000" d="M338.5826,-248.9512C358.9731,-230.5231 385.7435,-206.3289 407.2682,-186.8756"/>
<polygon fill="#000000" stroke="#000000" points="409.8672,-189.2444 414.9395,-179.9426 405.1737,-184.051 409.8672,-189.2444"/>
<text text-anchor="middle" x="412.6453" y="-217.0313" font-family="Times,serif" font-size="14.00" fill="#000000">Reconnected</text>
</g>
<!-- empty_queue -->
<g id="node22" class="node">
<title>empty_queue</title>
<ellipse fill="none" stroke="#000000" cx="695.4952" cy="-29.4156" rx="63.063" ry="29.3315"/>
<text text-anchor="middle" x="695.4952" y="-33.6156" font-family="Times,serif" font-size="14.00" fill="#000000">Empty Move</text>
<text text-anchor="middle" x="695.4952" y="-16.8156" font-family="Times,serif" font-size="14.00" fill="#000000">Queue</text>
</g>
<!-- empty_queue&#45;&gt;init -->
<g id="edge44" class="edge">
<title>empty_queue&#45;&gt;init</title>
<path fill="none" stroke="#000000" d="M753.2443,-41.6262C817.3781,-55.8231 923.5942,-81.2349 1012.4952,-111.6313 1056.8809,-126.8074 1109.4952,-106.3228 1109.4952,-153.2313 1109.4952,-858.0877 1109.4952,-858.0877 1109.4952,-858.0877 1109.4952,-978.6409 1115.4952,-1008.7128 1115.4952,-1129.2659 1115.4952,-1607.3128 1115.4952,-1607.3128 1115.4952,-1607.3128 1115.4952,-1629.8293 1115.4952,-1654.9859 1115.4952,-1675.3529"/>
<polygon fill="#000000" stroke="#000000" points="1111.9953,-1675.5275 1115.4952,-1685.5275 1118.9953,-1675.5275 1111.9953,-1675.5275"/>
<text text-anchor="middle" x="1194.8641" y="-910.2033" font-family="Times,serif" font-size="14.00" fill="#000000">Web&#45;App Fully Synchronized</text>
<text text-anchor="middle" x="1194.8641" y="-893.4033" font-family="Times,serif" font-size="14.00" fill="#000000">With Game State</text>
</g>
<!-- cheat&#45;&gt;red -->
<g id="edge47" class="edge">
<title>cheat&#45;&gt;red</title>
<path fill="none" stroke="#000000" d="M610.4952,-324.3183C610.4952,-291.2568 610.4952,-220.9873 610.4952,-181.5652"/>
<polygon fill="#000000" stroke="#000000" points="613.9953,-181.3206 610.4952,-171.3206 606.9953,-181.3207 613.9953,-181.3206"/>
</g>
<!-- engine&#45;&gt;disp_moves_on_board -->
<g id="edge10" class="edge">
<title>engine&#45;&gt;disp_moves_on_board</title>
<path fill="none" stroke="#000000" d="M662.4952,-756.1375C662.4952,-730.2456 662.4952,-697.2062 662.4952,-671.7438"/>
<polygon fill="#000000" stroke="#000000" points="665.9953,-671.6893 662.4952,-661.6893 658.9953,-671.6893 665.9953,-671.6893"/>
<text text-anchor="middle" x="675.7091" y="-704.7721" font-family="Times,serif" font-size="14.00" fill="#000000">True</text>
</g>
<!-- engine&#45;&gt;wait_input -->
<g id="edge11" class="edge">
<title>engine&#45;&gt;wait_input</title>
<path fill="none" stroke="#000000" d="M633.777,-777.4991C603.1078,-753.6665 556.3084,-711.1861 536.9482,-661.5564 526.2724,-634.1893 528.6672,-600.8824 533.3212,-575.4969"/>
<polygon fill="#000000" stroke="#000000" points="536.7928,-575.987 535.3452,-565.4916 529.9318,-574.599 536.7928,-575.987"/>
<text text-anchor="middle" x="552.2687" y="-627.9408" font-family="Times,serif" font-size="14.00" fill="#000000">False</text>
</g>
<!-- is_init&#45;&gt;send_config -->
<g id="edge4" class="edge">
<title>is_init&#45;&gt;send_config</title>
<path fill="none" stroke="#000000" d="M774.0569,-1603.525C700.5212,-1595.2016 582.4952,-1568.5883 582.4952,-1483.4972 582.4952,-1483.4972 582.4952,-1483.4972 582.4952,-1129.2659 582.4952,-1097.7792 604.7556,-1070.8417 627.9487,-1051.3208"/>
<polygon fill="#000000" stroke="#000000" points="630.2214,-1053.9845 635.8191,-1044.9891 625.8336,-1048.5303 630.2214,-1053.9845"/>
<text text-anchor="middle" x="595.7091" y="-1253.8816" font-family="Times,serif" font-size="14.00" fill="#000000">True</text>
</g>
<!-- is_init&#45;&gt;check -->
<g id="edge5" class="edge">
<title>is_init&#45;&gt;check</title>
<path fill="none" stroke="#000000" d="M831.4952,-1565.3945C831.4952,-1551.8873 831.4952,-1536.9579 831.4952,-1523.5859"/>
<polygon fill="#000000" stroke="#000000" points="834.9953,-1523.2525 831.4952,-1513.2526 827.9953,-1523.2526 834.9953,-1523.2525"/>
<text text-anchor="middle" x="846.2687" y="-1535.1128" font-family="Times,serif" font-size="14.00" fill="#000000">False</text>
</g>
<!-- not_normal -->
<g id="node26" class="node">
<title>not_normal</title>
<polygon fill="none" stroke="#000000" points="1243.4952,-194.9315 1163.1877,-153.2313 1243.4952,-111.531 1323.8027,-153.2313 1243.4952,-194.9315"/>
<text text-anchor="middle" x="1243.4952" y="-157.4313" font-family="Times,serif" font-size="14.00" fill="#000000">not Normal</text>
<text text-anchor="middle" x="1243.4952" y="-140.6313" font-family="Times,serif" font-size="14.00" fill="#000000">Mode</text>
</g>
<!-- not_normal&#45;&gt;init -->
<g id="edge17" class="edge">
<title>not_normal&#45;&gt;init</title>
<path fill="none" stroke="#000000" d="M1268.3944,-182.6623C1286.004,-206.5141 1306.4952,-241.8341 1306.4952,-277.0469 1306.4952,-1607.3128 1306.4952,-1607.3128 1306.4952,-1607.3128 1306.4952,-1666.0383 1237.2371,-1693.2058 1182.1311,-1705.5274"/>
<polygon fill="#000000" stroke="#000000" points="1181.0881,-1702.1703 1172.0262,-1707.6596 1182.5334,-1709.0195 1181.0881,-1702.1703"/>
<text text-anchor="middle" x="1321.2687" y="-957.619" font-family="Times,serif" font-size="14.00" fill="#000000">False</text>
</g>
<!-- not_normal&#45;&gt;green -->
<g id="edge16" class="edge">
<title>not_normal&#45;&gt;green</title>
<path fill="none" stroke="#000000" d="M1261.9642,-121.0234C1273.5459,-100.8264 1288.2969,-75.1023 1299.2173,-56.0584"/>
<polygon fill="#000000" stroke="#000000" points="1302.3016,-57.7157 1304.2399,-47.2996 1296.2291,-54.2335 1302.3016,-57.7157"/>
<text text-anchor="middle" x="1297.7091" y="-81.0313" font-family="Times,serif" font-size="14.00" fill="#000000">True</text>
</g>
<!-- is_valid&#45;&gt;red -->
<g id="edge18" class="edge">
<title>is_valid&#45;&gt;red</title>
<path fill="none" stroke="#000000" d="M704.8007,-262.3574C686.918,-241.6643 654.0598,-203.6423 632.242,-178.3958"/>
<polygon fill="#000000" stroke="#000000" points="634.7661,-175.9636 625.5793,-170.6859 629.4697,-180.5406 634.7661,-175.9636"/>
<text text-anchor="middle" x="689.2687" y="-217.0313" font-family="Times,serif" font-size="14.00" fill="#000000">False</text>
</g>
<!-- is_valid&#45;&gt;not_normal -->
<g id="edge15" class="edge">
<title>is_valid&#45;&gt;not_normal</title>
<path fill="none" stroke="#000000" d="M752.8243,-268.7308C839.9145,-248.2305 1065.9508,-195.0236 1178.2307,-168.5939"/>
<polygon fill="#000000" stroke="#000000" points="1179.1471,-171.974 1188.0791,-166.2757 1177.5431,-165.1602 1179.1471,-171.974"/>
<text text-anchor="middle" x="993.7091" y="-217.0313" font-family="Times,serif" font-size="14.00" fill="#000000">True</text>
</g>
<!-- beginner&#45;&gt;yellow -->
<g id="edge22" class="edge">
<title>beginner&#45;&gt;yellow</title>
<path fill="none" stroke="#000000" d="M738.377,-1293.299C732.6631,-1275.7219 726.4387,-1256.5745 721.5262,-1241.4627"/>
<polygon fill="#000000" stroke="#000000" points="724.7773,-1240.1423 718.3572,-1231.7142 718.1202,-1242.3064 724.7773,-1240.1423"/>
<text text-anchor="middle" x="742.7091" y="-1253.8816" font-family="Times,serif" font-size="14.00" fill="#000000">True</text>
</g>
<!-- beginner&#45;&gt;warning -->
<g id="edge24" class="edge">
<title>beginner&#45;&gt;warning</title>
<path fill="none" stroke="#000000" d="M777.1577,-1296.9817C788.6606,-1267.0013 797.3769,-1227.6347 782.4952,-1195.6816 776.4078,-1182.6111 766.3418,-1171.1954 755.3998,-1161.6856"/>
<polygon fill="#000000" stroke="#000000" points="757.2846,-1158.7065 747.322,-1155.1014 752.862,-1164.1324 757.2846,-1158.7065"/>
<text text-anchor="middle" x="805.2687" y="-1209.4816" font-family="Times,serif" font-size="14.00" fill="#000000">False</text>
</g>
<!-- draw&#45;&gt;init -->
<g id="edge29" class="edge">
<title>draw&#45;&gt;init</title>
<path fill="none" stroke="#000000" d="M917.6821,-422.4741C942.0563,-462.0334 1008.4152,-575.3452 1036.4952,-679.5564 1082.2115,-849.22 1070.4952,-897.7354 1070.4952,-1073.4503 1070.4952,-1607.3128 1070.4952,-1607.3128 1070.4952,-1607.3128 1070.4952,-1632.3289 1080.9072,-1658.2711 1091.7145,-1678.4602"/>
<polygon fill="#000000" stroke="#000000" points="1088.7303,-1680.2945 1096.6719,-1687.3075 1094.837,-1676.8728 1088.7303,-1680.2945"/>
<text text-anchor="middle" x="1085.2687" y="-1069.2503" font-family="Times,serif" font-size="14.00" fill="#000000">False</text>
</g>
<!-- draw&#45;&gt;end -->
<g id="edge30" class="edge">
<title>draw&#45;&gt;end</title>
<path fill="none" stroke="#000000" d="M909.8438,-390.2337C911.5045,-368.507 914.3467,-331.3213 916.3181,-305.5293"/>
<polygon fill="#000000" stroke="#000000" points="919.8313,-305.489 917.1037,-295.2514 912.8517,-304.9555 919.8313,-305.489"/>
<text text-anchor="middle" x="928.7091" y="-338.2626" font-family="Times,serif" font-size="14.00" fill="#000000">True</text>
</g>
<!-- connect&#45;&gt;empty_queue -->
<g id="edge43" class="edge">
<title>connect&#45;&gt;empty_queue</title>
<path fill="none" stroke="#000000" d="M485.9427,-132.7856C528.8897,-111.6004 596.1406,-78.4262 642.8275,-55.3961"/>
<polygon fill="#000000" stroke="#000000" points="644.4575,-58.4947 651.8774,-50.9318 641.3607,-52.2169 644.4575,-58.4947"/>
</g>
</g>
</svg>
